<svg width="95" height="116" viewBox="0 0 95 116" fill="none" xmlns="http://www.w3.org/2000/svg">
<path fill-rule="evenodd" clip-rule="evenodd" d="M36.2624 112.778C36.0147 113.628 36.3677 114.57 37.1692 115.032C38.1113 115.576 39.3154 115.253 39.8594 114.311L94.0478 20.4545C94.5416 19.5988 94.3205 18.5263 93.5697 17.9296C93.5513 16.972 92.8356 16.1458 91.8569 16.0173C89.7816 15.7447 87.7035 15.5988 85.631 15.5385L86.7671 13.5712C87.2608 12.7156 87.0397 11.643 86.289 11.0464C86.2706 10.0887 85.5548 9.26255 84.5762 9.13404C79.4092 8.45575 74.2258 8.5603 69.1518 8.82613C67.6537 8.90475 66.1731 8.99638 64.7045 9.08748C61.1417 9.30823 57.6487 9.52454 54.1477 9.53639C53.4742 9.53848 52.7991 9.53996 52.1231 9.5417C48.0718 9.55118 43.9797 9.56071 39.895 9.71437C39.5636 9.72671 39.1766 9.65575 38.5532 9.49596C38.4817 9.47773 38.4049 9.45753 38.3234 9.43621C37.792 9.2966 37.0694 9.10695 36.3377 9.04171C35.4637 8.96367 34.5864 8.83688 33.653 8.69861L33.4952 8.67532C32.6244 8.54611 31.7008 8.40895 30.7655 8.31538C29.4157 8.17998 28.0679 8.00529 26.687 7.82623L26.3219 7.77897C24.8243 7.58531 23.2887 7.39061 21.7384 7.25285C17.752 6.89837 13.7359 5.81182 10.2135 3.96201L10.0641 3.88348C9.25243 3.45777 8.29357 2.95427 7.38757 2.40332C6.39019 1.79667 5.63457 1.23634 5.23523 0.785774C4.51364 -0.0279689 3.26902 -0.102878 2.45527 0.618709C2.36907 0.695153 2.29092 0.777594 2.22154 0.86482C2.06611 0.868072 1.90885 0.889822 1.75193 0.93187C0.701344 1.21337 0.0780028 2.29303 0.359506 3.34362L27.4565 104.471C27.6578 105.222 28.267 105.755 28.9816 105.894C28.7339 106.745 29.087 107.686 29.8885 108.149C30.8306 108.693 32.0346 108.37 32.5787 107.428L33.3345 106.119L34.7373 111.354C34.9385 112.105 35.5477 112.638 36.2624 112.778ZM5.03605 5.58002L30.9647 102.347L31.893 100.739L7.64027 10.2269C7.35877 9.17629 7.98211 8.09664 9.03269 7.81513C9.04822 7.81097 9.06353 7.80721 9.07914 7.80337C8.84506 7.68805 8.61292 7.56983 8.3824 7.4488L8.21637 7.36179C7.41928 6.94339 6.35778 6.38653 5.34094 5.76811C5.24032 5.70707 5.13855 5.64429 5.03605 5.58002ZM16.7823 10.4707C16.9756 10.5731 17.1638 10.6719 17.3448 10.7667L17.4943 10.8453C21.0167 12.6951 25.0328 13.7816 29.0192 14.1361C30.5694 14.2739 32.1051 14.4686 33.6027 14.6622L33.9677 14.7095C35.3486 14.8886 36.6964 15.0632 38.0463 15.1986C38.9816 15.2922 39.9052 15.4294 40.776 15.5586L40.9338 15.5819C41.8671 15.7201 42.7444 15.8469 43.6185 15.925C44.3502 15.9902 45.0727 16.1799 45.6042 16.3195C45.6857 16.3408 45.7624 16.361 45.8339 16.3792C46.4574 16.539 46.8444 16.61 47.1758 16.5976C51.2605 16.444 55.3525 16.4344 59.4038 16.425C60.0799 16.4232 60.7549 16.4217 61.4285 16.4196C64.9294 16.4078 68.4224 16.1915 71.9853 15.9707C73.4539 15.8796 74.9345 15.788 76.4326 15.7094C77.9756 15.6286 79.529 15.5627 81.0888 15.529L82.6235 12.8712C78.2854 12.4278 73.8703 12.5229 69.3576 12.7593C67.9429 12.8332 66.5108 12.922 65.0685 13.0112C61.4582 13.2348 57.7838 13.4627 54.1609 13.4746C53.4799 13.477 52.8005 13.4786 52.1217 13.4801L52.1203 13.4801C48.066 13.4897 44.0521 13.4993 40.043 13.6501C39.0883 13.6857 38.2132 13.4744 37.5759 13.3112C37.4755 13.2854 37.3806 13.2609 37.2908 13.2377C36.7358 13.0939 36.366 12.9983 35.988 12.9647C34.9845 12.8751 34.0011 12.7316 33.0755 12.5946L32.9431 12.5747C32.0501 12.4426 31.2122 12.3182 30.3725 12.234C28.9629 12.0925 27.5595 11.9106 26.1888 11.7329L25.8164 11.6849C24.3167 11.4908 22.8523 11.3059 21.3896 11.1756C19.8564 11.0394 18.3127 10.8057 16.7823 10.4707ZM36.1193 101.295L38.2454 109.23L89.9043 19.7544C87.7481 19.5341 85.5733 19.4468 83.3765 19.4435L36.1193 101.295ZM78.7718 19.5425C78.063 19.5714 77.352 19.6049 76.6384 19.6425C75.224 19.7164 73.7922 19.8051 72.35 19.8946L72.3493 19.8944C68.739 20.1181 65.0645 20.3459 61.4416 20.3578C60.7695 20.3602 60.0982 20.3617 59.4282 20.3632L59.4126 20.3633L59.4045 20.3635L59.4024 20.3633L59.4014 20.3633C55.3467 20.373 51.3329 20.3826 47.3238 20.5333C46.3691 20.569 45.4939 20.3577 44.8566 20.1944C44.7815 20.1752 44.7096 20.1567 44.6406 20.1389L44.5716 20.121C44.0166 19.9771 43.6468 19.8815 43.2688 19.8479C42.2652 19.7584 41.2818 19.6148 40.3563 19.4779L40.2239 19.458C39.3309 19.3259 38.493 19.2014 37.6532 19.1172C36.2437 18.9758 34.8403 18.7939 33.4696 18.6162L33.0972 18.5681C31.5974 18.3741 30.133 18.1892 28.6704 18.0588C24.2294 17.6641 19.6993 16.4519 15.6632 14.3321L15.4971 14.2451C14.7 13.8267 13.6385 13.2698 12.6217 12.6514C12.5211 12.5903 12.4193 12.5276 12.3168 12.4633L34.6778 95.9156L78.7718 19.5425Z" fill="white"/>
</svg>
